<svg width="26" height="25" viewBox="0 0 26 25" fill="none" xmlns="http://www.w3.org/2000/svg">
<path d="M8.07812 14.4385C9.85938 14.0167 11.5 13.8057 13 13.8057C14.5 13.8057 16.1406 14.0167 17.9219 14.4385C19.7031 14.8604 21.3203 15.5635 22.7734 16.5479C24.2734 17.5323 25.0234 18.6339 25.0234 19.8526V24.3526H0.976562V19.8526C0.976562 18.6339 1.70312 17.5323 3.15625 16.5479C4.65625 15.5635 6.29688 14.8604 8.07812 14.4385ZM8.78125 2.13385C9.95312 0.9151 11.3594 0.305725 13 0.305725C14.6406 0.305725 16.0469 0.9151 17.2188 2.13385C18.3906 3.30573 18.9766 4.71198 18.9766 6.3526C18.9766 7.99323 18.3906 9.39948 17.2188 10.5714C16.0469 11.7432 14.6406 12.3292 13 12.3292C11.3594 12.3292 9.95312 11.7432 8.78125 10.5714C7.60938 9.39948 7.02344 7.99323 7.02344 6.3526C7.02344 4.71198 7.60938 3.30573 8.78125 2.13385ZM19.1172 17.8839C17.1016 17.087 15.0625 16.6885 13 16.6885C10.9375 16.6885 8.89844 17.087 6.88281 17.8839C4.86719 18.6339 3.85938 19.2901 3.85938 19.8526V21.4698H22.1406V19.8526C22.1406 19.2901 21.1328 18.6339 19.1172 17.8839ZM15.25 4.1026C14.6406 3.49323 13.8906 3.18854 13 3.18854C12.1094 3.18854 11.3594 3.49323 10.75 4.1026C10.1406 4.71198 9.83594 5.46198 9.83594 6.3526C9.83594 7.24323 10.1406 7.99323 10.75 8.6026C11.3594 9.1651 12.1094 9.44635 13 9.44635C13.8906 9.44635 14.6406 9.1651 15.25 8.6026C15.8594 7.99323 16.1641 7.24323 16.1641 6.3526C16.1641 5.46198 15.8594 4.71198 15.25 4.1026Z" fill="white"/>
</svg>
