<svg width="34" height="24" viewBox="0 0 34 24" fill="none" xmlns="http://www.w3.org/2000/svg">
<path d="M13.8359 9.04785C14.7266 8.15723 15.7812 7.71191 17 7.71191C18.2188 7.71191 19.2734 8.15723 20.1641 9.04785C21.0547 9.93848 21.5 10.9932 21.5 12.2119C21.5 13.4307 21.0547 14.4854 20.1641 15.376C19.2734 16.2666 18.2188 16.7119 17 16.7119C15.7812 16.7119 14.7266 16.2666 13.8359 15.376C12.9453 14.4854 12.5 13.4307 12.5 12.2119C12.5 10.9932 12.9453 9.93848 13.8359 9.04785ZM11.6562 17.5557C13.1562 19.0088 14.9375 19.7354 17 19.7354C19.0625 19.7354 20.8203 19.0088 22.2734 17.5557C23.7734 16.0557 24.5234 14.2744 24.5234 12.2119C24.5234 10.1494 23.7734 8.3916 22.2734 6.93848C20.8203 5.43848 19.0625 4.68848 17 4.68848C14.9375 4.68848 13.1562 5.43848 11.6562 6.93848C10.2031 8.3916 9.47656 10.1494 9.47656 12.2119C9.47656 14.2744 10.2031 16.0557 11.6562 17.5557ZM6.94531 4.05566C9.94531 1.99316 13.2969 0.961914 17 0.961914C20.7031 0.961914 24.0547 1.99316 27.0547 4.05566C30.0547 6.11816 32.2109 8.83691 33.5234 12.2119C32.2109 15.5869 30.0547 18.3057 27.0547 20.3682C24.0547 22.4307 20.7031 23.4619 17 23.4619C13.2969 23.4619 9.94531 22.4307 6.94531 20.3682C3.94531 18.3057 1.78906 15.5869 0.476562 12.2119C1.78906 8.83691 3.94531 6.11816 6.94531 4.05566Z" fill="black" fill-opacity="0.2"/>
</svg>
