<svg width="26" height="33" viewBox="0 0 26 33" fill="none" xmlns="http://www.w3.org/2000/svg">
<path d="M22 29.3936V14.3467H4V29.3936H22ZM8.35938 8.37012V11.3936H17.6406V8.37012C17.6406 7.10449 17.1719 6.02637 16.2344 5.13574C15.3438 4.19824 14.2656 3.72949 13 3.72949C11.7344 3.72949 10.6328 4.19824 9.69531 5.13574C8.80469 6.02637 8.35938 7.10449 8.35938 8.37012ZM22 11.3936C22.7969 11.3936 23.5 11.6982 24.1094 12.3076C24.7188 12.8701 25.0234 13.5498 25.0234 14.3467V29.3936C25.0234 30.1904 24.7188 30.8936 24.1094 31.5029C23.5 32.0654 22.7969 32.3467 22 32.3467H4C3.20312 32.3467 2.5 32.0654 1.89062 31.5029C1.28125 30.8936 0.976562 30.1904 0.976562 29.3936V14.3467C0.976562 13.5498 1.28125 12.8701 1.89062 12.3076C2.5 11.6982 3.20312 11.3936 4 11.3936H5.47656V8.37012C5.47656 6.30762 6.20312 4.5498 7.65625 3.09668C9.15625 1.59668 10.9375 0.84668 13 0.84668C15.0625 0.84668 16.8203 1.59668 18.2734 3.09668C19.7734 4.5498 20.5234 6.30762 20.5234 8.37012V11.3936H22ZM15.1094 23.9795C14.5 24.5889 13.7969 24.8936 13 24.8936C12.2031 24.8936 11.5 24.5889 10.8906 23.9795C10.2812 23.3701 9.97656 22.667 9.97656 21.8701C9.97656 21.0732 10.2812 20.3701 10.8906 19.7607C11.5 19.1514 12.2031 18.8467 13 18.8467C13.7969 18.8467 14.5 19.1514 15.1094 19.7607C15.7188 20.3701 16.0234 21.0732 16.0234 21.8701C16.0234 22.667 15.7188 23.3701 15.1094 23.9795Z" fill="white"/>
</svg>
